# xmcd
# Track frame offsets:
# 150
# 14960
# 31870
# 43397
# 58117
# 74990
# 89607
# 102445
# 117372
# 136240
# 148157
# 161915
# 173765
#
# Disc length: 2392 seconds
# Revision: 1
# Processed by: cddbd v1.5.2PL0 Copyright (c) Steve Scherf et al.
# Submitted via: VisiTrax 2.11.3.279 - For more info visit www.synapsa.com
#
DISCID=d009560d
DTITLE=Slim Dusty - To A Mate... Slim Dusty Remembers "Mack" Cormack
DYEAR=1985
DGENRE=Australian Country
TTITLE0=To A Mate
TTITLE1=A Picture Of Home
TTITLE2=Happy Jack
TTITLE3=The Frog
TTITLE4=When The Moon Across The Bushlands Beams
TTITLE5=How Will I Go With Him Mate
TTITLE6=That Was Years Ago
TTITLE7=Cattle Camp Reverie
TTITLE8=Comooweal
TTITLE9=So Long, Old Mates
TTITLE10=Give It A Go
TTITLE11=Old Mates
TTITLE12=In My Hour Of Darkness (Abridged)
EXTD=1985 EMI Music Australia 1996 EMI Music Australia
EXTT0=
EXTT1=
EXTT2=
EXTT3=
EXTT4=
EXTT5=
EXTT6=
EXTT7=
EXTT8=
EXTT9=
EXTT10=
EXTT11=
EXTT12=
PLAYORDER=
